<!-- Generated by IcoMoon.io -->
<svg version="1.1" xmlns="http://www.w3.org/2000/svg" width="512" height="512" viewBox="0 0 512 512">
<title></title>
<g id="icomoon-ignore">
</g>
<path fill="#999" d="M256 0c-141.167 0-256 114.833-256 256s114.833 256 256 256 256-114.853 256-256-114.833-256-256-256zM256 472.341c-119.275 0-216.341-97.046-216.341-216.341s97.066-216.341 216.341-216.341 216.341 97.046 216.341 216.341-97.046 216.341-216.341 216.341z"></path>
<path fill="#999" d="M355.148 234.386h-79.318v-79.318c0-10.946-8.864-19.83-19.83-19.83s-19.83 8.884-19.83 19.83v79.318h-79.318c-10.966 0-19.83 8.884-19.83 19.83s8.864 19.83 19.83 19.83h79.318v79.318c0 10.946 8.864 19.83 19.83 19.83s19.83-8.884 19.83-19.83v-79.318h79.318c10.966 0 19.83-8.884 19.83-19.83s-8.864-19.83-19.83-19.83z"></path>
</svg>
